<svg height="478" width="720" xmlns="http://www.w3.org/2000/svg">
<rect height="478" fill="#555" width="720"></rect>
<text fill="#7f7" font-family="Courier New" font-size="12" xml:space="preserve">
<tspan x="10" y="26">2 megabytes installed</tspan>
<tspan x="10" y="42"></tspan>
<tspan x="10" y="58">node_modules</tspan>
<tspan x="10" y="74">└─┬ ssh-exec@2.0.0 </tspan>
<tspan x="10" y="90">  ├─┬ duplexify@3.5.0 </tspan>
<tspan x="10" y="106">  │ ├─┬ end-of-stream@1.0.0 </tspan>
<tspan x="10" y="122">  │ │ └── once@1.3.3 </tspan>
<tspan x="10" y="138">  │ ├── inherits@2.0.3 </tspan>
<tspan x="10" y="154">  │ ├─┬ readable-stream@2.2.9 </tspan>
<tspan x="10" y="170">  │ │ ├── buffer-shims@1.0.0 </tspan>
<tspan x="10" y="186">  │ │ ├── core-util-is@1.0.2 </tspan>
<tspan x="10" y="202">  │ │ ├── isarray@1.0.0 </tspan>
<tspan x="10" y="218">  │ │ ├── process-nextick-args@1.0.7 </tspan>
<tspan x="10" y="234">  │ │ ├── string_decoder@1.0.0 </tspan>
<tspan x="10" y="250">  │ │ └── util-deprecate@1.0.2 </tspan>
<tspan x="10" y="266">  │ └── stream-shift@1.0.0 </tspan>
<tspan x="10" y="282">  ├─┬ once@1.4.0 </tspan>
<tspan x="10" y="298">  │ └── wrappy@1.0.2 </tspan>
<tspan x="10" y="314">  └─┬ ssh2@0.4.15 </tspan>
<tspan x="10" y="330">    ├─┬ readable-stream@1.0.34 </tspan>
<tspan x="10" y="346">    │ ├── isarray@0.0.1 </tspan>
<tspan x="10" y="362">    │ └── string_decoder@0.10.31 </tspan>
<tspan x="10" y="378">    └─┬ ssh2-streams@0.0.23 </tspan>
<tspan x="10" y="394">      ├── asn1@0.2.3 </tspan>
<tspan x="10" y="410">      ├─┬ readable-stream@1.0.34 </tspan>
<tspan x="10" y="426">      │ ├── isarray@0.0.1 </tspan>
<tspan x="10" y="442">      │ └── string_decoder@0.10.31 </tspan>
<tspan x="10" y="458">      └── streamsearch@0.1.2</tspan>
</text>
</svg>
